/* XPM */
static char * code[] = {
"20 20 8 1 ",
"  c None",
". c #A3BE8B",
"X c #A2BD8C",
"o c #A3BD8C",
"O c #A2BE8C",
"+ c #A3BE8C",
"@ c #A3BE8D",
"# c #A3BF8D",
"                    ",
"                    ",
"                    ",
"           ++       ",
"           ++       ",
"          +++       ",
"    ++    ++  +.    ",
"   ++.    ++  +++   ",
"  +++    +++   +++  ",
" +++     ++     ++. ",
" +++     ++     ++. ",
"  +++   +++    +++  ",
"   ++.  ++    +++   ",
"    .+  ++    +.    ",
"       +++          ",
"       ++           ",
"       ++           ",
"                    ",
"                    ",
"                    "};